<svg width="20" height="183" viewBox="0 0 20 183" fill="none" xmlns="http://www.w3.org/2000/svg">
<path d="M0.823675 0.790519C1.03947 0.790519 1.21932 0.610858 1.21932 0.395262C1.21932 0.179666 1.03947 0 0.823675 0C0.607882 0 0.42807 0.179666 0.42807 0.395262C0.42807 0.610858 0.607882 0.790519 0.823675 0.790519Z" fill="#00456C"/>
<path d="M5.36729 0.790519C5.58308 0.790519 5.7629 0.610858 5.7629 0.395262C5.7629 0.179666 5.58308 0 5.36729 0C5.1515 0 4.97165 0.179666 4.97165 0.395262C4.97165 0.610858 5.1515 0.790519 5.36729 0.790519Z" fill="#00456C"/>
<path d="M9.89897 0.790519C10.1148 0.790519 10.2946 0.610858 10.2946 0.395262C10.2946 0.179666 10.1148 0 9.89897 0C9.68317 0 9.50333 0.179666 9.50333 0.395262C9.50333 0.610858 9.68317 0.790519 9.89897 0.790519Z" fill="#00456C"/>
<path d="M14.4427 0.790519C14.6585 0.790519 14.8383 0.610858 14.8383 0.395262C14.8383 0.179666 14.6585 0 14.4427 0C14.2269 0 14.047 0.179666 14.047 0.395262C14.047 0.610858 14.2269 0.790519 14.4427 0.790519Z" fill="#00456C"/>
<path d="M18.9862 0.790519C19.202 0.790519 19.3819 0.610858 19.3819 0.395262C19.3819 0.179666 19.202 0 18.9862 0C18.7704 0 18.5906 0.179666 18.5906 0.395262C18.5906 0.610858 18.7704 0.790519 18.9862 0.790519Z" fill="#00456C"/>
<path d="M0.823675 5.31774C1.03947 5.31774 1.21932 5.13808 1.21932 4.92248C1.21932 4.70688 1.03947 4.52722 0.823675 4.52722C0.607882 4.52722 0.42807 4.70688 0.42807 4.92248C0.42807 5.13808 0.607882 5.31774 0.823675 5.31774Z" fill="#00456C"/>
<path d="M5.36729 5.31774C5.58308 5.31774 5.7629 5.13808 5.7629 4.92248C5.7629 4.70688 5.58308 4.52722 5.36729 4.52722C5.1515 4.52722 4.97165 4.70688 4.97165 4.92248C4.97165 5.13808 5.1515 5.31774 5.36729 5.31774Z" fill="#00456C"/>
<path d="M9.89897 5.31774C10.1148 5.31774 10.2946 5.13808 10.2946 4.92248C10.2946 4.70688 10.1148 4.52722 9.89897 4.52722C9.68317 4.52722 9.50333 4.70688 9.50333 4.92248C9.50333 5.13808 9.68317 5.31774 9.89897 5.31774Z" fill="#00456C"/>
<path d="M14.4427 5.31774C14.6585 5.31774 14.8383 5.13808 14.8383 4.92248C14.8383 4.70688 14.6585 4.52722 14.4427 4.52722C14.2269 4.52722 14.047 4.70688 14.047 4.92248C14.047 5.13808 14.2269 5.31774 14.4427 5.31774Z" fill="#00456C"/>
<path d="M18.9862 5.31774C19.202 5.31774 19.3819 5.13808 19.3819 4.92248C19.3819 4.70688 19.202 4.52722 18.9862 4.52722C18.7704 4.52722 18.5906 4.70688 18.5906 4.92248C18.5906 5.13808 18.7704 5.31774 18.9862 5.31774Z" fill="#00456C"/>
<path d="M0.823675 9.8573C1.03947 9.8573 1.21932 9.67763 1.21932 9.46203C1.21932 9.24644 1.03947 9.06677 0.823675 9.06677C0.607882 9.06677 0.42807 9.24644 0.42807 9.46203C0.42807 9.67763 0.607882 9.8573 0.823675 9.8573Z" fill="#00456C"/>
<path d="M5.36729 9.8573C5.58308 9.8573 5.7629 9.67763 5.7629 9.46203C5.7629 9.24644 5.58308 9.06677 5.36729 9.06677C5.1515 9.06677 4.97165 9.24644 4.97165 9.46203C4.97165 9.67763 5.1515 9.8573 5.36729 9.8573Z" fill="#00456C"/>
<path d="M9.89897 9.8573C10.1148 9.8573 10.2946 9.67763 10.2946 9.46203C10.2946 9.24644 10.1148 9.06677 9.89897 9.06677C9.68317 9.06677 9.50333 9.24644 9.50333 9.46203C9.50333 9.67763 9.68317 9.8573 9.89897 9.8573Z" fill="#00456C"/>
<path d="M14.4427 9.8573C14.6585 9.8573 14.8383 9.67763 14.8383 9.46203C14.8383 9.24644 14.6585 9.06677 14.4427 9.06677C14.2269 9.06677 14.047 9.24644 14.047 9.46203C14.047 9.67763 14.2269 9.8573 14.4427 9.8573Z" fill="#00456C"/>
<path d="M18.9862 9.8573C19.202 9.8573 19.3819 9.67763 19.3819 9.46203C19.3819 9.24644 19.202 9.06677 18.9862 9.06677C18.7704 9.06677 18.5906 9.24644 18.5906 9.46203C18.5906 9.67763 18.7704 9.8573 18.9862 9.8573Z" fill="#00456C"/>
<path d="M0.823675 14.3971C1.03947 14.3971 1.21932 14.2174 1.21932 14.0018C1.21932 13.7862 1.03947 13.6066 0.823675 13.6066C0.607882 13.6066 0.42807 13.7862 0.42807 14.0018C0.42807 14.2174 0.607882 14.3971 0.823675 14.3971Z" fill="#00456C"/>
<path d="M5.36729 14.3971C5.58308 14.3971 5.7629 14.2174 5.7629 14.0018C5.7629 13.7862 5.58308 13.6066 5.36729 13.6066C5.1515 13.6066 4.97165 13.7862 4.97165 14.0018C4.97165 14.2174 5.1515 14.3971 5.36729 14.3971Z" fill="#00456C"/>
<path d="M9.89897 14.3971C10.1148 14.3971 10.2946 14.2174 10.2946 14.0018C10.2946 13.7862 10.1148 13.6066 9.89897 13.6066C9.68317 13.6066 9.50333 13.7862 9.50333 14.0018C9.50333 14.2174 9.68317 14.3971 9.89897 14.3971Z" fill="#00456C"/>
<path d="M14.4427 14.3971C14.6585 14.3971 14.8383 14.2174 14.8383 14.0018C14.8383 13.7862 14.6585 13.6066 14.4427 13.6066C14.2269 13.6066 14.047 13.7862 14.047 14.0018C14.047 14.2174 14.2269 14.3971 14.4427 14.3971Z" fill="#00456C"/>
<path d="M18.9862 14.3971C19.202 14.3971 19.3819 14.2174 19.3819 14.0018C19.3819 13.7862 19.202 13.6066 18.9862 13.6066C18.7704 13.6066 18.5906 13.7862 18.5906 14.0018C18.5906 14.2174 18.7704 14.3971 18.9862 14.3971Z" fill="#00456C"/>
<path d="M0.823675 18.9243C1.03947 18.9243 1.21932 18.7446 1.21932 18.5291C1.21932 18.3135 1.03947 18.1338 0.823675 18.1338C0.607882 18.1338 0.42807 18.3135 0.42807 18.5291C0.42807 18.7446 0.607882 18.9243 0.823675 18.9243Z" fill="#00456C"/>
<path d="M5.36729 18.9243C5.58308 18.9243 5.7629 18.7446 5.7629 18.5291C5.7629 18.3135 5.58308 18.1338 5.36729 18.1338C5.1515 18.1338 4.97165 18.3135 4.97165 18.5291C4.97165 18.7446 5.1515 18.9243 5.36729 18.9243Z" fill="#00456C"/>
<path d="M9.89897 18.9243C10.1148 18.9243 10.2946 18.7446 10.2946 18.5291C10.2946 18.3135 10.1148 18.1338 9.89897 18.1338C9.68317 18.1338 9.50333 18.3135 9.50333 18.5291C9.50333 18.7446 9.68317 18.9243 9.89897 18.9243Z" fill="#00456C"/>
<path d="M14.4427 18.9243C14.6585 18.9243 14.8383 18.7446 14.8383 18.5291C14.8383 18.3135 14.6585 18.1338 14.4427 18.1338C14.2269 18.1338 14.047 18.3135 14.047 18.5291C14.047 18.7446 14.2269 18.9243 14.4427 18.9243Z" fill="#00456C"/>
<path d="M18.9862 18.9243C19.202 18.9243 19.3819 18.7446 19.3819 18.5291C19.3819 18.3135 19.202 18.1338 18.9862 18.1338C18.7704 18.1338 18.5906 18.3135 18.5906 18.5291C18.5906 18.7446 18.7704 18.9243 18.9862 18.9243Z" fill="#00456C"/>
<path d="M0.823675 23.4641C1.03947 23.4641 1.21932 23.2844 1.21932 23.0688C1.21932 22.8532 1.03947 22.6736 0.823675 22.6736C0.607882 22.6736 0.42807 22.8532 0.42807 23.0688C0.42807 23.2844 0.607882 23.4641 0.823675 23.4641Z" fill="#00456C"/>
<path d="M5.36729 23.4641C5.58308 23.4641 5.7629 23.2844 5.7629 23.0688C5.7629 22.8532 5.58308 22.6736 5.36729 22.6736C5.1515 22.6736 4.97165 22.8532 4.97165 23.0688C4.97165 23.2844 5.1515 23.4641 5.36729 23.4641Z" fill="#00456C"/>
<path d="M9.89897 23.4641C10.1148 23.4641 10.2946 23.2844 10.2946 23.0688C10.2946 22.8532 10.1148 22.6736 9.89897 22.6736C9.68317 22.6736 9.50333 22.8532 9.50333 23.0688C9.50333 23.2844 9.68317 23.4641 9.89897 23.4641Z" fill="#00456C"/>
<path d="M14.4427 23.4641C14.6585 23.4641 14.8383 23.2844 14.8383 23.0688C14.8383 22.8532 14.6585 22.6736 14.4427 22.6736C14.2269 22.6736 14.047 22.8532 14.047 23.0688C14.047 23.2844 14.2269 23.4641 14.4427 23.4641Z" fill="#00456C"/>
<path d="M18.9862 23.4641C19.202 23.4641 19.3819 23.2844 19.3819 23.0688C19.3819 22.8532 19.202 22.6736 18.9862 22.6736C18.7704 22.6736 18.5906 22.8532 18.5906 23.0688C18.5906 23.2844 18.7704 23.4641 18.9862 23.4641Z" fill="#00456C"/>
<path d="M0.823675 27.9915C1.03947 27.9915 1.21932 27.8118 1.21932 27.5962C1.21932 27.3806 1.03947 27.2009 0.823675 27.2009C0.607882 27.2009 0.42807 27.3806 0.42807 27.5962C0.42807 27.8118 0.607882 27.9915 0.823675 27.9915Z" fill="#00456C"/>
<path d="M5.36729 27.9915C5.58308 27.9915 5.7629 27.8118 5.7629 27.5962C5.7629 27.3806 5.58308 27.2009 5.36729 27.2009C5.1515 27.2009 4.97165 27.3806 4.97165 27.5962C4.97165 27.8118 5.1515 27.9915 5.36729 27.9915Z" fill="#00456C"/>
<path d="M9.89897 27.9915C10.1148 27.9915 10.2946 27.8118 10.2946 27.5962C10.2946 27.3806 10.1148 27.2009 9.89897 27.2009C9.68317 27.2009 9.50333 27.3806 9.50333 27.5962C9.50333 27.8118 9.68317 27.9915 9.89897 27.9915Z" fill="#00456C"/>
<path d="M14.4427 27.9915C14.6585 27.9915 14.8383 27.8118 14.8383 27.5962C14.8383 27.3806 14.6585 27.2009 14.4427 27.2009C14.2269 27.2009 14.047 27.3806 14.047 27.5962C14.047 27.8118 14.2269 27.9915 14.4427 27.9915Z" fill="#00456C"/>
<path d="M18.9862 27.9915C19.202 27.9915 19.3819 27.8118 19.3819 27.5962C19.3819 27.3806 19.202 27.2009 18.9862 27.2009C18.7704 27.2009 18.5906 27.3806 18.5906 27.5962C18.5906 27.8118 18.7704 27.9915 18.9862 27.9915Z" fill="#00456C"/>
<path d="M0.823675 32.5311C1.03947 32.5311 1.21932 32.3515 1.21932 32.1359C1.21932 31.9203 1.03947 31.7406 0.823675 31.7406C0.607882 31.7406 0.42807 31.9203 0.42807 32.1359C0.42807 32.3515 0.607882 32.5311 0.823675 32.5311Z" fill="#00456C"/>
<path d="M5.36729 32.5311C5.58308 32.5311 5.7629 32.3515 5.7629 32.1359C5.7629 31.9203 5.58308 31.7406 5.36729 31.7406C5.1515 31.7406 4.97165 31.9203 4.97165 32.1359C4.97165 32.3515 5.1515 32.5311 5.36729 32.5311Z" fill="#00456C"/>
<path d="M9.89897 32.5311C10.1148 32.5311 10.2946 32.3515 10.2946 32.1359C10.2946 31.9203 10.1148 31.7406 9.89897 31.7406C9.68317 31.7406 9.50333 31.9203 9.50333 32.1359C9.50333 32.3515 9.68317 32.5311 9.89897 32.5311Z" fill="#00456C"/>
<path d="M14.4427 32.5311C14.6585 32.5311 14.8383 32.3515 14.8383 32.1359C14.8383 31.9203 14.6585 31.7406 14.4427 31.7406C14.2269 31.7406 14.047 31.9203 14.047 32.1359C14.047 32.3515 14.2269 32.5311 14.4427 32.5311Z" fill="#00456C"/>
<path d="M18.9862 32.5311C19.202 32.5311 19.3819 32.3515 19.3819 32.1359C19.3819 31.9203 19.202 31.7406 18.9862 31.7406C18.7704 31.7406 18.5906 31.9203 18.5906 32.1359C18.5906 32.3515 18.7704 32.5311 18.9862 32.5311Z" fill="#00456C"/>
<path d="M0.823675 37.0704C1.03947 37.0704 1.21932 36.8908 1.21932 36.6752C1.21932 36.4596 1.03947 36.2799 0.823675 36.2799C0.607882 36.2799 0.42807 36.4596 0.42807 36.6752C0.42807 36.8908 0.607882 37.0704 0.823675 37.0704Z" fill="#00456C"/>
<path d="M5.36729 37.0704C5.58308 37.0704 5.7629 36.8908 5.7629 36.6752C5.7629 36.4596 5.58308 36.2799 5.36729 36.2799C5.1515 36.2799 4.97165 36.4596 4.97165 36.6752C4.97165 36.8908 5.1515 37.0704 5.36729 37.0704Z" fill="#00456C"/>
<path d="M9.89897 37.0704C10.1148 37.0704 10.2946 36.8908 10.2946 36.6752C10.2946 36.4596 10.1148 36.2799 9.89897 36.2799C9.68317 36.2799 9.50333 36.4596 9.50333 36.6752C9.50333 36.8908 9.68317 37.0704 9.89897 37.0704Z" fill="#00456C"/>
<path d="M14.4427 37.0704C14.6585 37.0704 14.8383 36.8908 14.8383 36.6752C14.8383 36.4596 14.6585 36.2799 14.4427 36.2799C14.2269 36.2799 14.047 36.4596 14.047 36.6752C14.047 36.8908 14.2269 37.0704 14.4427 37.0704Z" fill="#00456C"/>
<path d="M18.9862 37.0704C19.202 37.0704 19.3819 36.8908 19.3819 36.6752C19.3819 36.4596 19.202 36.2799 18.9862 36.2799C18.7704 36.2799 18.5906 36.4596 18.5906 36.6752C18.5906 36.8908 18.7704 37.0704 18.9862 37.0704Z" fill="#00456C"/>
<path d="M0.823675 41.5979C1.03947 41.5979 1.21932 41.4182 1.21932 41.2026C1.21932 40.987 1.03947 40.8074 0.823675 40.8074C0.607882 40.8074 0.42807 40.987 0.42807 41.2026C0.42807 41.4182 0.607882 41.5979 0.823675 41.5979Z" fill="#00456C"/>
<path d="M5.36729 41.5979C5.58308 41.5979 5.7629 41.4182 5.7629 41.2026C5.7629 40.987 5.58308 40.8074 5.36729 40.8074C5.1515 40.8074 4.97165 40.987 4.97165 41.2026C4.97165 41.4182 5.1515 41.5979 5.36729 41.5979Z" fill="#00456C"/>
<path d="M9.89897 41.5979C10.1148 41.5979 10.2946 41.4182 10.2946 41.2026C10.2946 40.987 10.1148 40.8074 9.89897 40.8074C9.68317 40.8074 9.50333 40.987 9.50333 41.2026C9.50333 41.4182 9.68317 41.5979 9.89897 41.5979Z" fill="#00456C"/>
<path d="M14.4427 41.5979C14.6585 41.5979 14.8383 41.4182 14.8383 41.2026C14.8383 40.987 14.6585 40.8074 14.4427 40.8074C14.2269 40.8074 14.047 40.987 14.047 41.2026C14.047 41.4182 14.2269 41.5979 14.4427 41.5979Z" fill="#00456C"/>
<path d="M18.9862 41.5979C19.202 41.5979 19.3819 41.4182 19.3819 41.2026C19.3819 40.987 19.202 40.8074 18.9862 40.8074C18.7704 40.8074 18.5906 40.987 18.5906 41.2026C18.5906 41.4182 18.7704 41.5979 18.9862 41.5979Z" fill="#00456C"/>
<path d="M0.823675 46.1374C1.03947 46.1374 1.21932 45.9578 1.21932 45.7422C1.21932 45.5266 1.03947 45.3469 0.823675 45.3469C0.607882 45.3469 0.42807 45.5266 0.42807 45.7422C0.42807 45.9578 0.607882 46.1374 0.823675 46.1374Z" fill="#00456C"/>
<path d="M5.36729 46.1374C5.58308 46.1374 5.7629 45.9578 5.7629 45.7422C5.7629 45.5266 5.58308 45.3469 5.36729 45.3469C5.1515 45.3469 4.97165 45.5266 4.97165 45.7422C4.97165 45.9578 5.1515 46.1374 5.36729 46.1374Z" fill="#00456C"/>
<path d="M9.89897 46.1374C10.1148 46.1374 10.2946 45.9578 10.2946 45.7422C10.2946 45.5266 10.1148 45.3469 9.89897 45.3469C9.68317 45.3469 9.50333 45.5266 9.50333 45.7422C9.50333 45.9578 9.68317 46.1374 9.89897 46.1374Z" fill="#00456C"/>
<path d="M14.4427 46.1374C14.6585 46.1374 14.8383 45.9578 14.8383 45.7422C14.8383 45.5266 14.6585 45.3469 14.4427 45.3469C14.2269 45.3469 14.047 45.5266 14.047 45.7422C14.047 45.9578 14.2269 46.1374 14.4427 46.1374Z" fill="#00456C"/>
<path d="M18.9862 46.1374C19.202 46.1374 19.3819 45.9578 19.3819 45.7422C19.3819 45.5266 19.202 45.3469 18.9862 45.3469C18.7704 45.3469 18.5906 45.5266 18.5906 45.7422C18.5906 45.9578 18.7704 46.1374 18.9862 46.1374Z" fill="#00456C"/>
<path d="M0.823675 50.665C1.03947 50.665 1.21932 50.4854 1.21932 50.2698C1.21932 50.0542 1.03947 49.8745 0.823675 49.8745C0.607882 49.8745 0.42807 50.0542 0.42807 50.2698C0.42807 50.4854 0.607882 50.665 0.823675 50.665Z" fill="#00456C"/>
<path d="M5.36729 50.665C5.58308 50.665 5.7629 50.4854 5.7629 50.2698C5.7629 50.0542 5.58308 49.8745 5.36729 49.8745C5.1515 49.8745 4.97165 50.0542 4.97165 50.2698C4.97165 50.4854 5.1515 50.665 5.36729 50.665Z" fill="#00456C"/>
<path d="M9.89897 50.665C10.1148 50.665 10.2946 50.4854 10.2946 50.2698C10.2946 50.0542 10.1148 49.8745 9.89897 49.8745C9.68317 49.8745 9.50333 50.0542 9.50333 50.2698C9.50333 50.4854 9.68317 50.665 9.89897 50.665Z" fill="#00456C"/>
<path d="M14.4427 50.665C14.6585 50.665 14.8383 50.4854 14.8383 50.2698C14.8383 50.0542 14.6585 49.8745 14.4427 49.8745C14.2269 49.8745 14.047 50.0542 14.047 50.2698C14.047 50.4854 14.2269 50.665 14.4427 50.665Z" fill="#00456C"/>
<path d="M18.9862 50.665C19.202 50.665 19.3819 50.4854 19.3819 50.2698C19.3819 50.0542 19.202 49.8745 18.9862 49.8745C18.7704 49.8745 18.5906 50.0542 18.5906 50.2698C18.5906 50.4854 18.7704 50.665 18.9862 50.665Z" fill="#00456C"/>
<path d="M0.823675 55.2042C1.03947 55.2042 1.21932 55.0246 1.21932 54.809C1.21932 54.5934 1.03947 54.4137 0.823675 54.4137C0.607882 54.4137 0.42807 54.5934 0.42807 54.809C0.42807 55.0246 0.607882 55.2042 0.823675 55.2042Z" fill="#00456C"/>
<path d="M5.36729 55.2042C5.58308 55.2042 5.7629 55.0246 5.7629 54.809C5.7629 54.5934 5.58308 54.4137 5.36729 54.4137C5.1515 54.4137 4.97165 54.5934 4.97165 54.809C4.97165 55.0246 5.1515 55.2042 5.36729 55.2042Z" fill="#00456C"/>
<path d="M9.89897 55.2042C10.1148 55.2042 10.2946 55.0246 10.2946 54.809C10.2946 54.5934 10.1148 54.4137 9.89897 54.4137C9.68317 54.4137 9.50333 54.5934 9.50333 54.809C9.50333 55.0246 9.68317 55.2042 9.89897 55.2042Z" fill="#00456C"/>
<path d="M14.4427 55.2042C14.6585 55.2042 14.8383 55.0246 14.8383 54.809C14.8383 54.5934 14.6585 54.4137 14.4427 54.4137C14.2269 54.4137 14.047 54.5934 14.047 54.809C14.047 55.0246 14.2269 55.2042 14.4427 55.2042Z" fill="#00456C"/>
<path d="M18.9862 55.2042C19.202 55.2042 19.3819 55.0246 19.3819 54.809C19.3819 54.5934 19.202 54.4137 18.9862 54.4137C18.7704 54.4137 18.5906 54.5934 18.5906 54.809C18.5906 55.0246 18.7704 55.2042 18.9862 55.2042Z" fill="#00456C"/>
<path d="M0.823675 59.744C1.03947 59.744 1.21932 59.5643 1.21932 59.3488C1.21932 59.1332 1.03947 58.9535 0.823675 58.9535C0.607882 58.9535 0.42807 59.1332 0.42807 59.3488C0.42807 59.5643 0.607882 59.744 0.823675 59.744Z" fill="#00456C"/>
<path d="M5.36729 59.744C5.58308 59.744 5.7629 59.5643 5.7629 59.3488C5.7629 59.1332 5.58308 58.9535 5.36729 58.9535C5.1515 58.9535 4.97165 59.1332 4.97165 59.3488C4.97165 59.5643 5.1515 59.744 5.36729 59.744Z" fill="#00456C"/>
<path d="M9.89897 59.744C10.1148 59.744 10.2946 59.5643 10.2946 59.3488C10.2946 59.1332 10.1148 58.9535 9.89897 58.9535C9.68317 58.9535 9.50333 59.1332 9.50333 59.3488C9.50333 59.5643 9.68317 59.744 9.89897 59.744Z" fill="#00456C"/>
<path d="M14.4427 59.744C14.6585 59.744 14.8383 59.5643 14.8383 59.3488C14.8383 59.1332 14.6585 58.9535 14.4427 58.9535C14.2269 58.9535 14.047 59.1332 14.047 59.3488C14.047 59.5643 14.2269 59.744 14.4427 59.744Z" fill="#00456C"/>
<path d="M18.9862 59.744C19.202 59.744 19.3819 59.5643 19.3819 59.3488C19.3819 59.1332 19.202 58.9535 18.9862 58.9535C18.7704 58.9535 18.5906 59.1332 18.5906 59.3488C18.5906 59.5643 18.7704 59.744 18.9862 59.744Z" fill="#00456C"/>
<path d="M0.823675 64.2714C1.03947 64.2714 1.21932 64.0917 1.21932 63.8761C1.21932 63.6605 1.03947 63.4808 0.823675 63.4808C0.607882 63.4808 0.42807 63.6605 0.42807 63.8761C0.42807 64.0917 0.607882 64.2714 0.823675 64.2714Z" fill="#00456C"/>
<path d="M5.36729 64.2714C5.58308 64.2714 5.7629 64.0917 5.7629 63.8761C5.7629 63.6605 5.58308 63.4808 5.36729 63.4808C5.1515 63.4808 4.97165 63.6605 4.97165 63.8761C4.97165 64.0917 5.1515 64.2714 5.36729 64.2714Z" fill="#00456C"/>
<path d="M9.89897 64.2714C10.1148 64.2714 10.2946 64.0917 10.2946 63.8761C10.2946 63.6605 10.1148 63.4808 9.89897 63.4808C9.68317 63.4808 9.50333 63.6605 9.50333 63.8761C9.50333 64.0917 9.68317 64.2714 9.89897 64.2714Z" fill="#00456C"/>
<path d="M14.4427 64.2714C14.6585 64.2714 14.8383 64.0917 14.8383 63.8761C14.8383 63.6605 14.6585 63.4808 14.4427 63.4808C14.2269 63.4808 14.047 63.6605 14.047 63.8761C14.047 64.0917 14.2269 64.2714 14.4427 64.2714Z" fill="#00456C"/>
<path d="M18.9862 64.2714C19.202 64.2714 19.3819 64.0917 19.3819 63.8761C19.3819 63.6605 19.202 63.4808 18.9862 63.4808C18.7704 63.4808 18.5906 63.6605 18.5906 63.8761C18.5906 64.0917 18.7704 64.2714 18.9862 64.2714Z" fill="#00456C"/>
<path d="M0.823675 68.811C1.03947 68.811 1.21932 68.6314 1.21932 68.4158C1.21932 68.2002 1.03947 68.0205 0.823675 68.0205C0.607882 68.0205 0.42807 68.2002 0.42807 68.4158C0.42807 68.6314 0.607882 68.811 0.823675 68.811Z" fill="#00456C"/>
<path d="M5.36729 68.811C5.58308 68.811 5.7629 68.6314 5.7629 68.4158C5.7629 68.2002 5.58308 68.0205 5.36729 68.0205C5.1515 68.0205 4.97165 68.2002 4.97165 68.4158C4.97165 68.6314 5.1515 68.811 5.36729 68.811Z" fill="#00456C"/>
<path d="M9.89897 68.811C10.1148 68.811 10.2946 68.6314 10.2946 68.4158C10.2946 68.2002 10.1148 68.0205 9.89897 68.0205C9.68317 68.0205 9.50333 68.2002 9.50333 68.4158C9.50333 68.6314 9.68317 68.811 9.89897 68.811Z" fill="#00456C"/>
<path d="M14.4427 68.811C14.6585 68.811 14.8383 68.6314 14.8383 68.4158C14.8383 68.2002 14.6585 68.0205 14.4427 68.0205C14.2269 68.0205 14.047 68.2002 14.047 68.4158C14.047 68.6314 14.2269 68.811 14.4427 68.811Z" fill="#00456C"/>
<path d="M18.9862 68.811C19.202 68.811 19.3819 68.6314 19.3819 68.4158C19.3819 68.2002 19.202 68.0205 18.9862 68.0205C18.7704 68.0205 18.5906 68.2002 18.5906 68.4158C18.5906 68.6314 18.7704 68.811 18.9862 68.811Z" fill="#00456C"/>
<path d="M0.823675 73.3384C1.03947 73.3384 1.21932 73.1587 1.21932 72.9431C1.21932 72.7275 1.03947 72.5479 0.823675 72.5479C0.607882 72.5479 0.42807 72.7275 0.42807 72.9431C0.42807 73.1587 0.607882 73.3384 0.823675 73.3384Z" fill="#00456C"/>
<path d="M5.36729 73.3384C5.58308 73.3384 5.7629 73.1587 5.7629 72.9431C5.7629 72.7275 5.58308 72.5479 5.36729 72.5479C5.1515 72.5479 4.97165 72.7275 4.97165 72.9431C4.97165 73.1587 5.1515 73.3384 5.36729 73.3384Z" fill="#00456C"/>
<path d="M9.89897 73.3384C10.1148 73.3384 10.2946 73.1587 10.2946 72.9431C10.2946 72.7275 10.1148 72.5479 9.89897 72.5479C9.68317 72.5479 9.50333 72.7275 9.50333 72.9431C9.50333 73.1587 9.68317 73.3384 9.89897 73.3384Z" fill="#00456C"/>
<path d="M14.4427 73.3384C14.6585 73.3384 14.8383 73.1587 14.8383 72.9431C14.8383 72.7275 14.6585 72.5479 14.4427 72.5479C14.2269 72.5479 14.047 72.7275 14.047 72.9431C14.047 73.1587 14.2269 73.3384 14.4427 73.3384Z" fill="#00456C"/>
<path d="M18.9862 73.3384C19.202 73.3384 19.3819 73.1587 19.3819 72.9431C19.3819 72.7275 19.202 72.5479 18.9862 72.5479C18.7704 72.5479 18.5906 72.7275 18.5906 72.9431C18.5906 73.1587 18.7704 73.3384 18.9862 73.3384Z" fill="#00456C"/>
<path d="M0.823675 77.8782C1.03947 77.8782 1.21932 77.6985 1.21932 77.4829C1.21932 77.2673 1.03947 77.0876 0.823675 77.0876C0.607882 77.0876 0.42807 77.2673 0.42807 77.4829C0.42807 77.6985 0.607882 77.8782 0.823675 77.8782Z" fill="#00456C"/>
<path d="M5.36729 77.8782C5.58308 77.8782 5.7629 77.6985 5.7629 77.4829C5.7629 77.2673 5.58308 77.0876 5.36729 77.0876C5.1515 77.0876 4.97165 77.2673 4.97165 77.4829C4.97165 77.6985 5.1515 77.8782 5.36729 77.8782Z" fill="#00456C"/>
<path d="M9.89897 77.8782C10.1148 77.8782 10.2946 77.6985 10.2946 77.4829C10.2946 77.2673 10.1148 77.0876 9.89897 77.0876C9.68317 77.0876 9.50333 77.2673 9.50333 77.4829C9.50333 77.6985 9.68317 77.8782 9.89897 77.8782Z" fill="#00456C"/>
<path d="M14.4427 77.8782C14.6585 77.8782 14.8383 77.6985 14.8383 77.4829C14.8383 77.2673 14.6585 77.0876 14.4427 77.0876C14.2269 77.0876 14.047 77.2673 14.047 77.4829C14.047 77.6985 14.2269 77.8782 14.4427 77.8782Z" fill="#00456C"/>
<path d="M18.9862 77.8782C19.202 77.8782 19.3819 77.6985 19.3819 77.4829C19.3819 77.2673 19.202 77.0876 18.9862 77.0876C18.7704 77.0876 18.5906 77.2673 18.5906 77.4829C18.5906 77.6985 18.7704 77.8782 18.9862 77.8782Z" fill="#00456C"/>
<path d="M0.823675 82.4176C1.03947 82.4176 1.21932 82.2379 1.21932 82.0223C1.21932 81.8067 1.03947 81.6271 0.823675 81.6271C0.607882 81.6271 0.42807 81.8067 0.42807 82.0223C0.42807 82.2379 0.607882 82.4176 0.823675 82.4176Z" fill="#00456C"/>
<path d="M5.36729 82.4176C5.58308 82.4176 5.7629 82.2379 5.7629 82.0223C5.7629 81.8067 5.58308 81.6271 5.36729 81.6271C5.1515 81.6271 4.97165 81.8067 4.97165 82.0223C4.97165 82.2379 5.1515 82.4176 5.36729 82.4176Z" fill="#00456C"/>
<path d="M9.89897 82.4176C10.1148 82.4176 10.2946 82.2379 10.2946 82.0223C10.2946 81.8067 10.1148 81.6271 9.89897 81.6271C9.68317 81.6271 9.50333 81.8067 9.50333 82.0223C9.50333 82.2379 9.68317 82.4176 9.89897 82.4176Z" fill="#00456C"/>
<path d="M14.4427 82.4176C14.6585 82.4176 14.8383 82.2379 14.8383 82.0223C14.8383 81.8067 14.6585 81.6271 14.4427 81.6271C14.2269 81.6271 14.047 81.8067 14.047 82.0223C14.047 82.2379 14.2269 82.4176 14.4427 82.4176Z" fill="#00456C"/>
<path d="M18.9862 82.4176C19.202 82.4176 19.3819 82.2379 19.3819 82.0223C19.3819 81.8067 19.202 81.6271 18.9862 81.6271C18.7704 81.6271 18.5906 81.8067 18.5906 82.0223C18.5906 82.2379 18.7704 82.4176 18.9862 82.4176Z" fill="#00456C"/>
<path d="M0.823675 86.9449C1.03947 86.9449 1.21932 86.7653 1.21932 86.5497C1.21932 86.3341 1.03947 86.1544 0.823675 86.1544C0.607882 86.1544 0.42807 86.3341 0.42807 86.5497C0.42807 86.7653 0.607882 86.9449 0.823675 86.9449Z" fill="#00456C"/>
<path d="M5.36729 86.9449C5.58308 86.9449 5.7629 86.7653 5.7629 86.5497C5.7629 86.3341 5.58308 86.1544 5.36729 86.1544C5.1515 86.1544 4.97165 86.3341 4.97165 86.5497C4.97165 86.7653 5.1515 86.9449 5.36729 86.9449Z" fill="#00456C"/>
<path d="M9.89897 86.9449C10.1148 86.9449 10.2946 86.7653 10.2946 86.5497C10.2946 86.3341 10.1148 86.1544 9.89897 86.1544C9.68317 86.1544 9.50333 86.3341 9.50333 86.5497C9.50333 86.7653 9.68317 86.9449 9.89897 86.9449Z" fill="#00456C"/>
<path d="M14.4427 86.9449C14.6585 86.9449 14.8383 86.7653 14.8383 86.5497C14.8383 86.3341 14.6585 86.1544 14.4427 86.1544C14.2269 86.1544 14.047 86.3341 14.047 86.5497C14.047 86.7653 14.2269 86.9449 14.4427 86.9449Z" fill="#00456C"/>
<path d="M18.9862 86.9449C19.202 86.9449 19.3819 86.7653 19.3819 86.5497C19.3819 86.3341 19.202 86.1544 18.9862 86.1544C18.7704 86.1544 18.5906 86.3341 18.5906 86.5497C18.5906 86.7653 18.7704 86.9449 18.9862 86.9449Z" fill="#00456C"/>
<path d="M0.823675 91.4847C1.03947 91.4847 1.21932 91.3051 1.21932 91.0895C1.21932 90.8739 1.03947 90.6942 0.823675 90.6942C0.607882 90.6942 0.42807 90.8739 0.42807 91.0895C0.42807 91.3051 0.607882 91.4847 0.823675 91.4847Z" fill="#00456C"/>
<path d="M5.36729 91.4847C5.58308 91.4847 5.7629 91.3051 5.7629 91.0895C5.7629 90.8739 5.58308 90.6942 5.36729 90.6942C5.1515 90.6942 4.97165 90.8739 4.97165 91.0895C4.97165 91.3051 5.1515 91.4847 5.36729 91.4847Z" fill="#00456C"/>
<path d="M9.89897 91.4847C10.1148 91.4847 10.2946 91.3051 10.2946 91.0895C10.2946 90.8739 10.1148 90.6942 9.89897 90.6942C9.68317 90.6942 9.50333 90.8739 9.50333 91.0895C9.50333 91.3051 9.68317 91.4847 9.89897 91.4847Z" fill="#00456C"/>
<path d="M14.4427 91.4847C14.6585 91.4847 14.8383 91.3051 14.8383 91.0895C14.8383 90.8739 14.6585 90.6942 14.4427 90.6942C14.2269 90.6942 14.047 90.8739 14.047 91.0895C14.047 91.3051 14.2269 91.4847 14.4427 91.4847Z" fill="#00456C"/>
<path d="M18.9862 91.4847C19.202 91.4847 19.3819 91.3051 19.3819 91.0895C19.3819 90.8739 19.202 90.6942 18.9862 90.6942C18.7704 90.6942 18.5906 90.8739 18.5906 91.0895C18.5906 91.3051 18.7704 91.4847 18.9862 91.4847Z" fill="#00456C"/>
<path d="M0.823675 96.0119C1.03947 96.0119 1.21932 95.8323 1.21932 95.6167C1.21932 95.4011 1.03947 95.2214 0.823675 95.2214C0.607882 95.2214 0.42807 95.4011 0.42807 95.6167C0.42807 95.8323 0.607882 96.0119 0.823675 96.0119Z" fill="#00456C"/>
<path d="M5.36729 96.0119C5.58308 96.0119 5.7629 95.8323 5.7629 95.6167C5.7629 95.4011 5.58308 95.2214 5.36729 95.2214C5.1515 95.2214 4.97165 95.4011 4.97165 95.6167C4.97165 95.8323 5.1515 96.0119 5.36729 96.0119Z" fill="#00456C"/>
<path d="M9.89897 96.0119C10.1148 96.0119 10.2946 95.8323 10.2946 95.6167C10.2946 95.4011 10.1148 95.2214 9.89897 95.2214C9.68317 95.2214 9.50333 95.4011 9.50333 95.6167C9.50333 95.8323 9.68317 96.0119 9.89897 96.0119Z" fill="#00456C"/>
<path d="M14.4427 96.0119C14.6585 96.0119 14.8383 95.8323 14.8383 95.6167C14.8383 95.4011 14.6585 95.2214 14.4427 95.2214C14.2269 95.2214 14.047 95.4011 14.047 95.6167C14.047 95.8323 14.2269 96.0119 14.4427 96.0119Z" fill="#00456C"/>
<path d="M18.9862 96.0119C19.202 96.0119 19.3819 95.8323 19.3819 95.6167C19.3819 95.4011 19.202 95.2214 18.9862 95.2214C18.7704 95.2214 18.5906 95.4011 18.5906 95.6167C18.5906 95.8323 18.7704 96.0119 18.9862 96.0119Z" fill="#00456C"/>
<path d="M0.823675 100.552C1.03947 100.552 1.21932 100.372 1.21932 100.156C1.21932 99.9409 1.03947 99.7612 0.823675 99.7612C0.607882 99.7612 0.42807 99.9409 0.42807 100.156C0.42807 100.372 0.607882 100.552 0.823675 100.552Z" fill="#00456C"/>
<path d="M5.36729 100.552C5.58308 100.552 5.7629 100.372 5.7629 100.156C5.7629 99.9409 5.58308 99.7612 5.36729 99.7612C5.1515 99.7612 4.97165 99.9409 4.97165 100.156C4.97165 100.372 5.1515 100.552 5.36729 100.552Z" fill="#00456C"/>
<path d="M9.89897 100.552C10.1148 100.552 10.2946 100.372 10.2946 100.156C10.2946 99.9409 10.1148 99.7612 9.89897 99.7612C9.68317 99.7612 9.50333 99.9409 9.50333 100.156C9.50333 100.372 9.68317 100.552 9.89897 100.552Z" fill="#00456C"/>
<path d="M14.4427 100.552C14.6585 100.552 14.8383 100.372 14.8383 100.156C14.8383 99.9409 14.6585 99.7612 14.4427 99.7612C14.2269 99.7612 14.047 99.9409 14.047 100.156C14.047 100.372 14.2269 100.552 14.4427 100.552Z" fill="#00456C"/>
<path d="M18.9862 100.552C19.202 100.552 19.3819 100.372 19.3819 100.156C19.3819 99.9409 19.202 99.7612 18.9862 99.7612C18.7704 99.7612 18.5906 99.9409 18.5906 100.156C18.5906 100.372 18.7704 100.552 18.9862 100.552Z" fill="#00456C"/>
<path d="M0.823675 105.091C1.03947 105.091 1.21932 104.911 1.21932 104.696C1.21932 104.48 1.03947 104.3 0.823675 104.3C0.607882 104.3 0.42807 104.48 0.42807 104.696C0.42807 104.911 0.607882 105.091 0.823675 105.091Z" fill="#00456C"/>
<path d="M5.36729 105.091C5.58308 105.091 5.7629 104.911 5.7629 104.696C5.7629 104.48 5.58308 104.3 5.36729 104.3C5.1515 104.3 4.97165 104.48 4.97165 104.696C4.97165 104.911 5.1515 105.091 5.36729 105.091Z" fill="#00456C"/>
<path d="M9.89897 105.091C10.1148 105.091 10.2946 104.911 10.2946 104.696C10.2946 104.48 10.1148 104.3 9.89897 104.3C9.68317 104.3 9.50333 104.48 9.50333 104.696C9.50333 104.911 9.68317 105.091 9.89897 105.091Z" fill="#00456C"/>
<path d="M14.4427 105.091C14.6585 105.091 14.8383 104.911 14.8383 104.696C14.8383 104.48 14.6585 104.3 14.4427 104.3C14.2269 104.3 14.047 104.48 14.047 104.696C14.047 104.911 14.2269 105.091 14.4427 105.091Z" fill="#00456C"/>
<path d="M18.9862 105.091C19.202 105.091 19.3819 104.911 19.3819 104.696C19.3819 104.48 19.202 104.3 18.9862 104.3C18.7704 104.3 18.5906 104.48 18.5906 104.696C18.5906 104.911 18.7704 105.091 18.9862 105.091Z" fill="#00456C"/>
<path d="M0.823675 109.619C1.03947 109.619 1.21932 109.439 1.21932 109.223C1.21932 109.008 1.03947 108.828 0.823675 108.828C0.607882 108.828 0.42807 109.008 0.42807 109.223C0.42807 109.439 0.607882 109.619 0.823675 109.619Z" fill="#00456C"/>
<path d="M5.36729 109.619C5.58308 109.619 5.7629 109.439 5.7629 109.223C5.7629 109.008 5.58308 108.828 5.36729 108.828C5.1515 108.828 4.97165 109.008 4.97165 109.223C4.97165 109.439 5.1515 109.619 5.36729 109.619Z" fill="#00456C"/>
<path d="M9.89897 109.619C10.1148 109.619 10.2946 109.439 10.2946 109.223C10.2946 109.008 10.1148 108.828 9.89897 108.828C9.68317 108.828 9.50333 109.008 9.50333 109.223C9.50333 109.439 9.68317 109.619 9.89897 109.619Z" fill="#00456C"/>
<path d="M14.4427 109.619C14.6585 109.619 14.8383 109.439 14.8383 109.223C14.8383 109.008 14.6585 108.828 14.4427 108.828C14.2269 108.828 14.047 109.008 14.047 109.223C14.047 109.439 14.2269 109.619 14.4427 109.619Z" fill="#00456C"/>
<path d="M18.9862 109.619C19.202 109.619 19.3819 109.439 19.3819 109.223C19.3819 109.008 19.202 108.828 18.9862 108.828C18.7704 108.828 18.5906 109.008 18.5906 109.223C18.5906 109.439 18.7704 109.619 18.9862 109.619Z" fill="#00456C"/>
<path d="M0.823675 114.158C1.03947 114.158 1.21932 113.978 1.21932 113.763C1.21932 113.547 1.03947 113.368 0.823675 113.368C0.607882 113.368 0.42807 113.547 0.42807 113.763C0.42807 113.978 0.607882 114.158 0.823675 114.158Z" fill="#00456C"/>
<path d="M5.36729 114.158C5.58308 114.158 5.7629 113.978 5.7629 113.763C5.7629 113.547 5.58308 113.368 5.36729 113.368C5.1515 113.368 4.97165 113.547 4.97165 113.763C4.97165 113.978 5.1515 114.158 5.36729 114.158Z" fill="#00456C"/>
<path d="M9.89897 114.158C10.1148 114.158 10.2946 113.978 10.2946 113.763C10.2946 113.547 10.1148 113.368 9.89897 113.368C9.68317 113.368 9.50333 113.547 9.50333 113.763C9.50333 113.978 9.68317 114.158 9.89897 114.158Z" fill="#00456C"/>
<path d="M14.4427 114.158C14.6585 114.158 14.8383 113.978 14.8383 113.763C14.8383 113.547 14.6585 113.368 14.4427 113.368C14.2269 113.368 14.047 113.547 14.047 113.763C14.047 113.978 14.2269 114.158 14.4427 114.158Z" fill="#00456C"/>
<path d="M18.9862 114.158C19.202 114.158 19.3819 113.978 19.3819 113.763C19.3819 113.547 19.202 113.368 18.9862 113.368C18.7704 113.368 18.5906 113.547 18.5906 113.763C18.5906 113.978 18.7704 114.158 18.9862 114.158Z" fill="#00456C"/>
<path d="M0.823675 118.686C1.03947 118.686 1.21932 118.506 1.21932 118.29C1.21932 118.075 1.03947 117.895 0.823675 117.895C0.607882 117.895 0.42807 118.075 0.42807 118.29C0.42807 118.506 0.607882 118.686 0.823675 118.686Z" fill="#00456C"/>
<path d="M5.36729 118.686C5.58308 118.686 5.7629 118.506 5.7629 118.29C5.7629 118.075 5.58308 117.895 5.36729 117.895C5.1515 117.895 4.97165 118.075 4.97165 118.29C4.97165 118.506 5.1515 118.686 5.36729 118.686Z" fill="#00456C"/>
<path d="M9.89897 118.686C10.1148 118.686 10.2946 118.506 10.2946 118.29C10.2946 118.075 10.1148 117.895 9.89897 117.895C9.68317 117.895 9.50333 118.075 9.50333 118.29C9.50333 118.506 9.68317 118.686 9.89897 118.686Z" fill="#00456C"/>
<path d="M14.4427 118.686C14.6585 118.686 14.8383 118.506 14.8383 118.29C14.8383 118.075 14.6585 117.895 14.4427 117.895C14.2269 117.895 14.047 118.075 14.047 118.29C14.047 118.506 14.2269 118.686 14.4427 118.686Z" fill="#00456C"/>
<path d="M18.9862 118.686C19.202 118.686 19.3819 118.506 19.3819 118.29C19.3819 118.075 19.202 117.895 18.9862 117.895C18.7704 117.895 18.5906 118.075 18.5906 118.29C18.5906 118.506 18.7704 118.686 18.9862 118.686Z" fill="#00456C"/>
<path d="M0.823675 123.225C1.03947 123.225 1.21932 123.045 1.21932 122.83C1.21932 122.614 1.03947 122.435 0.823675 122.435C0.607882 122.435 0.42807 122.614 0.42807 122.83C0.42807 123.045 0.607882 123.225 0.823675 123.225Z" fill="#00456C"/>
<path d="M5.36729 123.225C5.58308 123.225 5.7629 123.045 5.7629 122.83C5.7629 122.614 5.58308 122.435 5.36729 122.435C5.1515 122.435 4.97165 122.614 4.97165 122.83C4.97165 123.045 5.1515 123.225 5.36729 123.225Z" fill="#00456C"/>
<path d="M9.89897 123.225C10.1148 123.225 10.2946 123.045 10.2946 122.83C10.2946 122.614 10.1148 122.435 9.89897 122.435C9.68317 122.435 9.50333 122.614 9.50333 122.83C9.50333 123.045 9.68317 123.225 9.89897 123.225Z" fill="#00456C"/>
<path d="M14.4427 123.225C14.6585 123.225 14.8383 123.045 14.8383 122.83C14.8383 122.614 14.6585 122.435 14.4427 122.435C14.2269 122.435 14.047 122.614 14.047 122.83C14.047 123.045 14.2269 123.225 14.4427 123.225Z" fill="#00456C"/>
<path d="M18.9862 123.225C19.202 123.225 19.3819 123.045 19.3819 122.83C19.3819 122.614 19.202 122.435 18.9862 122.435C18.7704 122.435 18.5906 122.614 18.5906 122.83C18.5906 123.045 18.7704 123.225 18.9862 123.225Z" fill="#00456C"/>
<path d="M0.823675 127.765C1.03947 127.765 1.21932 127.585 1.21932 127.369C1.21932 127.154 1.03947 126.974 0.823675 126.974C0.607882 126.974 0.42807 127.154 0.42807 127.369C0.42807 127.585 0.607882 127.765 0.823675 127.765Z" fill="#00456C"/>
<path d="M5.36729 127.765C5.58308 127.765 5.7629 127.585 5.7629 127.369C5.7629 127.154 5.58308 126.974 5.36729 126.974C5.1515 126.974 4.97165 127.154 4.97165 127.369C4.97165 127.585 5.1515 127.765 5.36729 127.765Z" fill="#00456C"/>
<path d="M9.89897 127.765C10.1148 127.765 10.2946 127.585 10.2946 127.369C10.2946 127.154 10.1148 126.974 9.89897 126.974C9.68317 126.974 9.50333 127.154 9.50333 127.369C9.50333 127.585 9.68317 127.765 9.89897 127.765Z" fill="#00456C"/>
<path d="M14.4427 127.765C14.6585 127.765 14.8383 127.585 14.8383 127.369C14.8383 127.154 14.6585 126.974 14.4427 126.974C14.2269 126.974 14.047 127.154 14.047 127.369C14.047 127.585 14.2269 127.765 14.4427 127.765Z" fill="#00456C"/>
<path d="M18.9862 127.765C19.202 127.765 19.3819 127.585 19.3819 127.369C19.3819 127.154 19.202 126.974 18.9862 126.974C18.7704 126.974 18.5906 127.154 18.5906 127.369C18.5906 127.585 18.7704 127.765 18.9862 127.765Z" fill="#00456C"/>
<path d="M0.823675 132.292C1.03947 132.292 1.21932 132.112 1.21932 131.897C1.21932 131.681 1.03947 131.501 0.823675 131.501C0.607882 131.501 0.42807 131.681 0.42807 131.897C0.42807 132.112 0.607882 132.292 0.823675 132.292Z" fill="#00456C"/>
<path d="M5.36729 132.292C5.58308 132.292 5.7629 132.112 5.7629 131.897C5.7629 131.681 5.58308 131.501 5.36729 131.501C5.1515 131.501 4.97165 131.681 4.97165 131.897C4.97165 132.112 5.1515 132.292 5.36729 132.292Z" fill="#00456C"/>
<path d="M9.89897 132.292C10.1148 132.292 10.2946 132.112 10.2946 131.897C10.2946 131.681 10.1148 131.501 9.89897 131.501C9.68317 131.501 9.50333 131.681 9.50333 131.897C9.50333 132.112 9.68317 132.292 9.89897 132.292Z" fill="#00456C"/>
<path d="M14.4427 132.292C14.6585 132.292 14.8383 132.112 14.8383 131.897C14.8383 131.681 14.6585 131.501 14.4427 131.501C14.2269 131.501 14.047 131.681 14.047 131.897C14.047 132.112 14.2269 132.292 14.4427 132.292Z" fill="#00456C"/>
<path d="M18.9862 132.292C19.202 132.292 19.3819 132.112 19.3819 131.897C19.3819 131.681 19.202 131.501 18.9862 131.501C18.7704 131.501 18.5906 131.681 18.5906 131.897C18.5906 132.112 18.7704 132.292 18.9862 132.292Z" fill="#00456C"/>
<path d="M0.823675 136.832C1.03947 136.832 1.21932 136.652 1.21932 136.436C1.21932 136.221 1.03947 136.041 0.823675 136.041C0.607882 136.041 0.42807 136.221 0.42807 136.436C0.42807 136.652 0.607882 136.832 0.823675 136.832Z" fill="#00456C"/>
<path d="M5.36729 136.832C5.58308 136.832 5.7629 136.652 5.7629 136.436C5.7629 136.221 5.58308 136.041 5.36729 136.041C5.1515 136.041 4.97165 136.221 4.97165 136.436C4.97165 136.652 5.1515 136.832 5.36729 136.832Z" fill="#00456C"/>
<path d="M9.89897 136.832C10.1148 136.832 10.2946 136.652 10.2946 136.436C10.2946 136.221 10.1148 136.041 9.89897 136.041C9.68317 136.041 9.50333 136.221 9.50333 136.436C9.50333 136.652 9.68317 136.832 9.89897 136.832Z" fill="#00456C"/>
<path d="M14.4427 136.832C14.6585 136.832 14.8383 136.652 14.8383 136.436C14.8383 136.221 14.6585 136.041 14.4427 136.041C14.2269 136.041 14.047 136.221 14.047 136.436C14.047 136.652 14.2269 136.832 14.4427 136.832Z" fill="#00456C"/>
<path d="M18.9862 136.832C19.202 136.832 19.3819 136.652 19.3819 136.436C19.3819 136.221 19.202 136.041 18.9862 136.041C18.7704 136.041 18.5906 136.221 18.5906 136.436C18.5906 136.652 18.7704 136.832 18.9862 136.832Z" fill="#00456C"/>
<path d="M0.823675 141.359C1.03947 141.359 1.21932 141.179 1.21932 140.964C1.21932 140.748 1.03947 140.568 0.823675 140.568C0.607882 140.568 0.42807 140.748 0.42807 140.964C0.42807 141.179 0.607882 141.359 0.823675 141.359Z" fill="#00456C"/>
<path d="M5.36729 141.359C5.58308 141.359 5.7629 141.179 5.7629 140.964C5.7629 140.748 5.58308 140.568 5.36729 140.568C5.1515 140.568 4.97165 140.748 4.97165 140.964C4.97165 141.179 5.1515 141.359 5.36729 141.359Z" fill="#00456C"/>
<path d="M9.89897 141.359C10.1148 141.359 10.2946 141.179 10.2946 140.964C10.2946 140.748 10.1148 140.568 9.89897 140.568C9.68317 140.568 9.50333 140.748 9.50333 140.964C9.50333 141.179 9.68317 141.359 9.89897 141.359Z" fill="#00456C"/>
<path d="M14.4427 141.359C14.6585 141.359 14.8383 141.179 14.8383 140.964C14.8383 140.748 14.6585 140.568 14.4427 140.568C14.2269 140.568 14.047 140.748 14.047 140.964C14.047 141.179 14.2269 141.359 14.4427 141.359Z" fill="#00456C"/>
<path d="M18.9862 141.359C19.202 141.359 19.3819 141.179 19.3819 140.964C19.3819 140.748 19.202 140.568 18.9862 140.568C18.7704 140.568 18.5906 140.748 18.5906 140.964C18.5906 141.179 18.7704 141.359 18.9862 141.359Z" fill="#00456C"/>
<path d="M0.823675 145.899C1.03947 145.899 1.21932 145.719 1.21932 145.503C1.21932 145.288 1.03947 145.108 0.823675 145.108C0.607882 145.108 0.42807 145.288 0.42807 145.503C0.42807 145.719 0.607882 145.899 0.823675 145.899Z" fill="#00456C"/>
<path d="M5.36729 145.899C5.58308 145.899 5.7629 145.719 5.7629 145.503C5.7629 145.288 5.58308 145.108 5.36729 145.108C5.1515 145.108 4.97165 145.288 4.97165 145.503C4.97165 145.719 5.1515 145.899 5.36729 145.899Z" fill="#00456C"/>
<path d="M9.89897 145.899C10.1148 145.899 10.2946 145.719 10.2946 145.503C10.2946 145.288 10.1148 145.108 9.89897 145.108C9.68317 145.108 9.50333 145.288 9.50333 145.503C9.50333 145.719 9.68317 145.899 9.89897 145.899Z" fill="#00456C"/>
<path d="M14.4427 145.899C14.6585 145.899 14.8383 145.719 14.8383 145.503C14.8383 145.288 14.6585 145.108 14.4427 145.108C14.2269 145.108 14.047 145.288 14.047 145.503C14.047 145.719 14.2269 145.899 14.4427 145.899Z" fill="#00456C"/>
<path d="M18.9862 145.899C19.202 145.899 19.3819 145.719 19.3819 145.503C19.3819 145.288 19.202 145.108 18.9862 145.108C18.7704 145.108 18.5906 145.288 18.5906 145.503C18.5906 145.719 18.7704 145.899 18.9862 145.899Z" fill="#00456C"/>
<path d="M0.823675 150.438C1.03947 150.438 1.21932 150.259 1.21932 150.043C1.21932 149.827 1.03947 149.648 0.823675 149.648C0.607882 149.648 0.42807 149.827 0.42807 150.043C0.42807 150.259 0.607882 150.438 0.823675 150.438Z" fill="#00456C"/>
<path d="M5.36729 150.438C5.58308 150.438 5.7629 150.259 5.7629 150.043C5.7629 149.827 5.58308 149.648 5.36729 149.648C5.1515 149.648 4.97165 149.827 4.97165 150.043C4.97165 150.259 5.1515 150.438 5.36729 150.438Z" fill="#00456C"/>
<path d="M9.89897 150.438C10.1148 150.438 10.2946 150.259 10.2946 150.043C10.2946 149.827 10.1148 149.648 9.89897 149.648C9.68317 149.648 9.50333 149.827 9.50333 150.043C9.50333 150.259 9.68317 150.438 9.89897 150.438Z" fill="#00456C"/>
<path d="M14.4427 150.438C14.6585 150.438 14.8383 150.259 14.8383 150.043C14.8383 149.827 14.6585 149.648 14.4427 149.648C14.2269 149.648 14.047 149.827 14.047 150.043C14.047 150.259 14.2269 150.438 14.4427 150.438Z" fill="#00456C"/>
<path d="M18.9862 150.438C19.202 150.438 19.3819 150.259 19.3819 150.043C19.3819 149.827 19.202 149.648 18.9862 149.648C18.7704 149.648 18.5906 149.827 18.5906 150.043C18.5906 150.259 18.7704 150.438 18.9862 150.438Z" fill="#00456C"/>
<path d="M0.823675 154.966C1.03947 154.966 1.21932 154.786 1.21932 154.571C1.21932 154.355 1.03947 154.175 0.823675 154.175C0.607882 154.175 0.42807 154.355 0.42807 154.571C0.42807 154.786 0.607882 154.966 0.823675 154.966Z" fill="#00456C"/>
<path d="M5.36729 154.966C5.58308 154.966 5.7629 154.786 5.7629 154.571C5.7629 154.355 5.58308 154.175 5.36729 154.175C5.1515 154.175 4.97165 154.355 4.97165 154.571C4.97165 154.786 5.1515 154.966 5.36729 154.966Z" fill="#00456C"/>
<path d="M9.89897 154.966C10.1148 154.966 10.2946 154.786 10.2946 154.571C10.2946 154.355 10.1148 154.175 9.89897 154.175C9.68317 154.175 9.50333 154.355 9.50333 154.571C9.50333 154.786 9.68317 154.966 9.89897 154.966Z" fill="#00456C"/>
<path d="M14.4427 154.966C14.6585 154.966 14.8383 154.786 14.8383 154.571C14.8383 154.355 14.6585 154.175 14.4427 154.175C14.2269 154.175 14.047 154.355 14.047 154.571C14.047 154.786 14.2269 154.966 14.4427 154.966Z" fill="#00456C"/>
<path d="M18.9862 154.966C19.202 154.966 19.3819 154.786 19.3819 154.571C19.3819 154.355 19.202 154.175 18.9862 154.175C18.7704 154.175 18.5906 154.355 18.5906 154.571C18.5906 154.786 18.7704 154.966 18.9862 154.966Z" fill="#00456C"/>
<path d="M0.823675 159.505C1.03947 159.505 1.21932 159.326 1.21932 159.11C1.21932 158.894 1.03947 158.715 0.823675 158.715C0.607882 158.715 0.42807 158.894 0.42807 159.11C0.42807 159.326 0.607882 159.505 0.823675 159.505Z" fill="#00456C"/>
<path d="M5.36729 159.505C5.58308 159.505 5.7629 159.326 5.7629 159.11C5.7629 158.894 5.58308 158.715 5.36729 158.715C5.1515 158.715 4.97165 158.894 4.97165 159.11C4.97165 159.326 5.1515 159.505 5.36729 159.505Z" fill="#00456C"/>
<path d="M9.89897 159.505C10.1148 159.505 10.2946 159.326 10.2946 159.11C10.2946 158.894 10.1148 158.715 9.89897 158.715C9.68317 158.715 9.50333 158.894 9.50333 159.11C9.50333 159.326 9.68317 159.505 9.89897 159.505Z" fill="#00456C"/>
<path d="M14.4427 159.505C14.6585 159.505 14.8383 159.326 14.8383 159.11C14.8383 158.894 14.6585 158.715 14.4427 158.715C14.2269 158.715 14.047 158.894 14.047 159.11C14.047 159.326 14.2269 159.505 14.4427 159.505Z" fill="#00456C"/>
<path d="M18.9862 159.505C19.202 159.505 19.3819 159.326 19.3819 159.11C19.3819 158.894 19.202 158.715 18.9862 158.715C18.7704 158.715 18.5906 158.894 18.5906 159.11C18.5906 159.326 18.7704 159.505 18.9862 159.505Z" fill="#00456C"/>
<path d="M0.823675 164.033C1.03947 164.033 1.21932 163.853 1.21932 163.637C1.21932 163.422 1.03947 163.242 0.823675 163.242C0.607882 163.242 0.42807 163.422 0.42807 163.637C0.42807 163.853 0.607882 164.033 0.823675 164.033Z" fill="#00456C"/>
<path d="M5.36729 164.033C5.58308 164.033 5.7629 163.853 5.7629 163.637C5.7629 163.422 5.58308 163.242 5.36729 163.242C5.1515 163.242 4.97165 163.422 4.97165 163.637C4.97165 163.853 5.1515 164.033 5.36729 164.033Z" fill="#00456C"/>
<path d="M9.89897 164.033C10.1148 164.033 10.2946 163.853 10.2946 163.637C10.2946 163.422 10.1148 163.242 9.89897 163.242C9.68317 163.242 9.50333 163.422 9.50333 163.637C9.50333 163.853 9.68317 164.033 9.89897 164.033Z" fill="#00456C"/>
<path d="M14.4427 164.033C14.6585 164.033 14.8383 163.853 14.8383 163.637C14.8383 163.422 14.6585 163.242 14.4427 163.242C14.2269 163.242 14.047 163.422 14.047 163.637C14.047 163.853 14.2269 164.033 14.4427 164.033Z" fill="#00456C"/>
<path d="M18.9862 164.033C19.202 164.033 19.3819 163.853 19.3819 163.637C19.3819 163.422 19.202 163.242 18.9862 163.242C18.7704 163.242 18.5906 163.422 18.5906 163.637C18.5906 163.853 18.7704 164.033 18.9862 164.033Z" fill="#00456C"/>
<path d="M0.823675 168.572C1.03947 168.572 1.21932 168.393 1.21932 168.177C1.21932 167.962 1.03947 167.782 0.823675 167.782C0.607882 167.782 0.42807 167.962 0.42807 168.177C0.42807 168.393 0.607882 168.572 0.823675 168.572Z" fill="#00456C"/>
<path d="M5.36729 168.572C5.58308 168.572 5.7629 168.393 5.7629 168.177C5.7629 167.962 5.58308 167.782 5.36729 167.782C5.1515 167.782 4.97165 167.962 4.97165 168.177C4.97165 168.393 5.1515 168.572 5.36729 168.572Z" fill="#00456C"/>
<path d="M9.89897 168.572C10.1148 168.572 10.2946 168.393 10.2946 168.177C10.2946 167.962 10.1148 167.782 9.89897 167.782C9.68317 167.782 9.50333 167.962 9.50333 168.177C9.50333 168.393 9.68317 168.572 9.89897 168.572Z" fill="#00456C"/>
<path d="M14.4427 168.572C14.6585 168.572 14.8383 168.393 14.8383 168.177C14.8383 167.962 14.6585 167.782 14.4427 167.782C14.2269 167.782 14.047 167.962 14.047 168.177C14.047 168.393 14.2269 168.572 14.4427 168.572Z" fill="#00456C"/>
<path d="M18.9862 168.572C19.202 168.572 19.3819 168.393 19.3819 168.177C19.3819 167.962 19.202 167.782 18.9862 167.782C18.7704 167.782 18.5906 167.962 18.5906 168.177C18.5906 168.393 18.7704 168.572 18.9862 168.572Z" fill="#00456C"/>
<path d="M0.823675 173.112C1.03947 173.112 1.21932 172.932 1.21932 172.716C1.21932 172.501 1.03947 172.321 0.823675 172.321C0.607882 172.321 0.42807 172.501 0.42807 172.716C0.42807 172.932 0.607882 173.112 0.823675 173.112Z" fill="#00456C"/>
<path d="M5.36729 173.112C5.58308 173.112 5.7629 172.932 5.7629 172.716C5.7629 172.501 5.58308 172.321 5.36729 172.321C5.1515 172.321 4.97165 172.501 4.97165 172.716C4.97165 172.932 5.1515 173.112 5.36729 173.112Z" fill="#00456C"/>
<path d="M9.89897 173.112C10.1148 173.112 10.2946 172.932 10.2946 172.716C10.2946 172.501 10.1148 172.321 9.89897 172.321C9.68317 172.321 9.50333 172.501 9.50333 172.716C9.50333 172.932 9.68317 173.112 9.89897 173.112Z" fill="#00456C"/>
<path d="M14.4427 173.112C14.6585 173.112 14.8383 172.932 14.8383 172.716C14.8383 172.501 14.6585 172.321 14.4427 172.321C14.2269 172.321 14.047 172.501 14.047 172.716C14.047 172.932 14.2269 173.112 14.4427 173.112Z" fill="#00456C"/>
<path d="M18.9862 173.112C19.202 173.112 19.3819 172.932 19.3819 172.716C19.3819 172.501 19.202 172.321 18.9862 172.321C18.7704 172.321 18.5906 172.501 18.5906 172.716C18.5906 172.932 18.7704 173.112 18.9862 173.112Z" fill="#00456C"/>
<path d="M0.823675 177.639C1.03947 177.639 1.21932 177.46 1.21932 177.244C1.21932 177.029 1.03947 176.849 0.823675 176.849C0.607882 176.849 0.42807 177.029 0.42807 177.244C0.42807 177.46 0.607882 177.639 0.823675 177.639Z" fill="#00456C"/>
<path d="M5.36729 177.639C5.58308 177.639 5.7629 177.46 5.7629 177.244C5.7629 177.029 5.58308 176.849 5.36729 176.849C5.1515 176.849 4.97165 177.029 4.97165 177.244C4.97165 177.46 5.1515 177.639 5.36729 177.639Z" fill="#00456C"/>
<path d="M9.89897 177.639C10.1148 177.639 10.2946 177.46 10.2946 177.244C10.2946 177.029 10.1148 176.849 9.89897 176.849C9.68317 176.849 9.50333 177.029 9.50333 177.244C9.50333 177.46 9.68317 177.639 9.89897 177.639Z" fill="#00456C"/>
<path d="M14.4427 177.639C14.6585 177.639 14.8383 177.46 14.8383 177.244C14.8383 177.029 14.6585 176.849 14.4427 176.849C14.2269 176.849 14.047 177.029 14.047 177.244C14.047 177.46 14.2269 177.639 14.4427 177.639Z" fill="#00456C"/>
<path d="M18.9862 177.639C19.202 177.639 19.3819 177.46 19.3819 177.244C19.3819 177.029 19.202 176.849 18.9862 176.849C18.7704 176.849 18.5906 177.029 18.5906 177.244C18.5906 177.46 18.7704 177.639 18.9862 177.639Z" fill="#00456C"/>
<path d="M0.823675 182.179C1.03947 182.179 1.21932 181.999 1.21932 181.783C1.21932 181.568 1.03947 181.388 0.823675 181.388C0.607882 181.388 0.42807 181.568 0.42807 181.783C0.42807 181.999 0.607882 182.179 0.823675 182.179Z" fill="#00456C"/>
<path d="M5.36729 182.179C5.58308 182.179 5.7629 181.999 5.7629 181.783C5.7629 181.568 5.58308 181.388 5.36729 181.388C5.1515 181.388 4.97165 181.568 4.97165 181.783C4.97165 181.999 5.1515 182.179 5.36729 182.179Z" fill="#00456C"/>
<path d="M9.89897 182.179C10.1148 182.179 10.2946 181.999 10.2946 181.783C10.2946 181.568 10.1148 181.388 9.89897 181.388C9.68317 181.388 9.50333 181.568 9.50333 181.783C9.50333 181.999 9.68317 182.179 9.89897 182.179Z" fill="#00456C"/>
<path d="M14.4427 182.179C14.6585 182.179 14.8383 181.999 14.8383 181.783C14.8383 181.568 14.6585 181.388 14.4427 181.388C14.2269 181.388 14.047 181.568 14.047 181.783C14.047 181.999 14.2269 182.179 14.4427 182.179Z" fill="#00456C"/>
<path d="M18.9862 182.179C19.202 182.179 19.3819 181.999 19.3819 181.783C19.3819 181.568 19.202 181.388 18.9862 181.388C18.7704 181.388 18.5906 181.568 18.5906 181.783C18.5906 181.999 18.7704 182.179 18.9862 182.179Z" fill="#00456C"/>
</svg>
