<svg width="375" height="178" viewBox="0 0 375 178" fill="none" xmlns="http://www.w3.org/2000/svg">
<path d="M186.845 111.654C177.518 111.654 167.592 110.779 155.855 108.935C124.613 104.024 101.775 90.6809 79.6798 77.781C71.2159 72.8343 62.4643 67.7319 53.4969 63.2762C37.9358 55.5147 22.2308 50.3284 3.06118 50.3284C-11.9604 50.3284 -29.092 53.5145 -49.952 61.1442L-49.976 61.0963C-38.1673 56.7724 -27.4736 53.8259 -17.2953 52.0891C-7.76445 50.4602 1.04711 49.9212 9.64288 50.4722C17.4594 50.9633 24.9882 52.3526 32.6489 54.7003C39.2066 56.7125 46.04 59.5033 53.5209 63.2403C62.4883 67.6839 71.2399 72.7984 79.7038 77.7451C101.799 90.645 124.637 103.988 155.867 108.899C174.713 111.869 199.577 114.193 224.849 105.821C241.057 100.455 256.906 91.9146 271.952 80.452C289.659 66.9653 307.953 56.1256 326.344 48.2324C343.427 40.8901 360.511 36.1111 377.139 34.027C383.936 33.1766 390.59 32.7454 397.124 32.7454C413.045 32.7454 428.222 35.2966 443.124 40.4469C464.499 47.8371 485.659 60.689 507.79 79.7334L507.754 79.7813C470.529 47.7413 435.703 32.7933 397.172 32.7933C390.614 32.7933 383.948 33.2245 377.151 34.0869C342.516 38.4467 306.155 54.4966 272 80.5C264.231 86.4169 256.211 91.5912 248.142 95.8791C240.566 99.9036 232.737 103.269 224.885 105.88C213.771 109.57 202.119 111.462 189.267 111.666C188.476 111.678 187.672 111.69 186.881 111.69L186.845 111.654Z" fill="#00456C"/>
<path d="M175.252 113.87C170.505 113.87 165.506 113.678 160.123 113.307C144.322 112.205 129.552 108.743 113.631 102.431C99.5807 96.8616 86.8489 89.9505 73.3618 82.6442C67.4275 79.4222 61.2774 76.0925 55.0674 72.9184C24.137 57.0122 -2.95707 51.1073 -49.9161 68.0435L-49.952 67.9357C-37.9156 63.5999 -27.09 60.7133 -16.8757 59.1202C-7.32088 57.635 1.51465 57.3116 10.1464 58.1381C17.9149 58.8807 25.5157 60.5576 33.3801 63.2765C39.9498 65.5402 46.8552 68.5825 55.1033 72.8226C61.3134 75.9967 67.4635 79.3264 73.3978 82.5484C100.168 97.0652 125.44 110.768 160.123 113.187C178.705 114.481 203.114 114.528 227.163 103.306C242.436 96.1669 257.769 86.5609 272.731 74.727C290.69 60.5216 309.524 49.8975 328.717 43.1541C337.565 40.04 346.472 37.7762 355.188 36.4228C363.544 35.1292 371.78 34.6501 379.668 35.0214C403.022 36.1113 423.474 40.3514 444.035 48.3524C464.871 56.4612 486.007 68.4987 510.559 86.2255L510.499 86.3093C462.485 51.6343 425.8 37.2851 379.668 35.1292C377.882 35.0453 376.084 34.9974 374.286 34.9974C341.233 34.9974 305.424 48.9992 272.815 74.8109C257.853 86.6447 242.508 96.2747 227.222 103.401C216.804 108.264 205.679 111.354 193.211 112.84C187.493 113.522 181.606 113.858 175.252 113.858V113.87Z" fill="#00456C"/>
<path d="M156.155 117.954C122.886 117.954 96.1041 103.629 67.8591 88.5133C64.2026 86.561 60.4262 84.5368 56.6499 82.5605C27.4938 67.1453 1.13103 56.7967 -49.8561 74.9427L-49.9161 74.787C-26.3586 66.4027 -7.10508 63.564 10.6619 65.8158C26.6786 67.852 40.6572 73.9246 56.7218 82.4167C60.4982 84.393 64.2746 86.4172 67.9311 88.3696C96.152 103.461 122.922 117.787 156.155 117.787C158.864 117.787 161.609 117.691 164.403 117.499C187.037 115.906 209.048 113.427 229.512 100.826C243.767 92.0467 258.177 81.6382 273.546 69.0258C291.181 54.5569 310.555 44.5556 331.127 39.2975C347.899 35.0095 365.102 33.9076 382.234 36.0516C403.622 38.7106 423.007 44.4478 445.09 54.6408C465.818 64.2108 487.361 77.0029 513.376 92.7414L513.293 92.8851C461.214 61.3841 427.023 41.7888 382.222 36.2073C355.128 32.8296 314.295 35.812 273.654 69.1456C258.273 81.77 243.863 92.1785 229.596 100.958C220.185 106.755 209.587 110.875 197.191 113.558C185.85 116.014 174.329 116.96 164.415 117.667C161.609 117.858 158.864 117.954 156.155 117.954Z" fill="#00456C"/>
<path d="M154.296 122.817C140.294 122.817 126.255 120.589 111.761 116.098C92.975 110.276 74.9323 101.173 58.2323 92.2143C24.5566 73.9964 0.483646 64.1987 -49.8082 81.8417L-49.8801 81.6381C-26.011 73.2658 -6.61356 70.6786 11.1774 73.5053C28.0932 76.1883 42.5394 83.4826 58.3282 92.0226C92.4356 110.324 126.543 126.386 168.671 121.811C194.554 119.008 215.21 111.33 231.838 98.3348C245.373 87.7586 258.62 76.6794 274.349 63.3124C292.176 48.1608 312.101 38.5907 333.549 34.8657C354.696 31.2005 373.099 34.0272 384.8 37.0576C415.982 45.1065 440.318 58.4375 471.129 75.3139C484.268 82.5124 499.158 90.6692 516.158 99.2451L516.062 99.4367C499.05 90.8488 484.16 82.6921 471.021 75.5055C440.222 58.6411 415.898 45.3221 384.74 37.2731C361.985 31.3922 317.412 26.9964 274.481 63.4801C258.74 76.859 245.493 87.9263 231.958 98.5145C215.306 111.534 194.602 119.224 168.683 122.038C163.875 122.553 159.08 122.817 154.272 122.817H154.296Z" fill="#00456C"/>
<path d="M147.87 128.902C137.249 128.902 126.543 127.56 115.573 124.877C98.6336 120.733 80.9146 113.426 59.8028 101.856C26.8224 83.6383 2.98925 70.4749 -49.7602 88.7407L-49.8442 88.4892C-25.3396 80.0091 -6.3618 77.7453 11.6929 81.1829C28.8485 84.4408 43.954 92.7891 59.9347 101.617C104.028 125.775 137.812 133.106 172.926 126.123C197.935 121.152 218.543 110.959 234.152 95.8554C246.212 84.1773 260.323 70.6426 275.141 57.611C293.219 41.7168 313.672 32.5899 335.958 30.4938C357.586 28.4576 375.856 33.5002 387.377 38.0876C408.453 46.4839 425.848 56.6408 444.263 67.3967C464.451 79.1826 487.325 92.5496 518.963 105.761L518.855 106.012C487.194 92.7891 464.307 79.4222 444.119 67.6362C425.716 56.8924 408.333 46.7354 387.269 38.3511C368.687 30.9489 320.565 18.0251 275.32 57.8266C260.515 70.8582 246.404 84.3929 234.344 96.071C218.687 111.211 198.042 121.416 172.974 126.41C164.594 128.075 156.25 128.914 147.858 128.914L147.87 128.902Z" fill="#00456C"/>
<path d="M142.548 135.789C117.012 135.789 90.5534 127.788 61.3853 111.51L58.8198 110.073C24.5446 90.765 1.91028 78.0089 -49.7123 95.6638L-49.8202 95.3524C1.93426 77.6496 24.6285 90.4296 58.9756 109.785L61.5412 111.235C104.005 134.95 140.749 141.059 177.194 130.459C201.723 123.32 221.672 110.851 236.49 93.4001C250.672 76.7033 263.212 63.516 275.956 51.9217C294.298 35.237 315.29 26.5652 338.356 26.158C338.92 26.158 339.483 26.146 340.034 26.146C362.705 26.146 380.975 34.2309 389.955 39.1297C404.952 47.3104 417.828 56.042 430.272 64.4862C454.429 80.8715 479.401 97.8078 521.756 112.277L521.649 112.588C479.257 98.1072 454.261 81.147 430.08 64.7617C417.636 56.3295 404.784 47.5978 389.799 39.4291C375.185 31.464 323.826 8.82642 276.172 52.1733C263.428 63.7675 250.9 76.9309 236.729 93.6276C221.876 111.127 201.867 123.631 177.278 130.782C165.781 134.124 154.26 135.813 142.536 135.813L142.548 135.789Z" fill="#00456C"/>
<path d="M138.172 143.263C133.197 143.263 128.209 142.951 123.186 142.34C103.741 139.945 83.4802 132.818 62.9678 121.152C60.7619 119.894 58.616 118.649 56.506 117.439C23.094 98.1672 1.02314 85.435 -49.6643 102.551L-49.7842 102.192C-25.8791 94.1187 -7.51269 92.1664 9.77476 95.8555C25.7914 99.2811 39.4343 107.15 56.6978 117.104C58.7958 118.313 60.9417 119.559 63.1476 120.817C104.532 144.341 144.334 149.024 181.438 134.759C205.188 125.632 225.029 110.468 238.803 90.9207C251.499 72.9065 263.919 58.2818 276.759 46.2084C295.389 28.6972 316.897 20.4926 340.718 21.8101C358.437 22.8043 377.331 29.4878 392.544 40.1478C403.969 48.1488 413.812 56.1139 423.331 63.8035C449.502 84.9679 474.234 104.958 524.562 118.769L524.466 119.14C474.066 105.306 449.31 85.2913 423.103 64.1029C413.596 56.4133 403.753 48.4602 392.34 40.4592C363.556 20.289 316.081 9.76069 277.035 46.4839C264.219 58.5334 251.811 73.146 239.139 91.1363C225.316 110.744 205.427 125.955 181.606 135.106C167.508 140.532 152.954 143.251 138.184 143.251L138.172 143.263Z" fill="#00456C"/>
<path d="M134.875 151.288C132.249 151.288 129.612 151.204 126.974 151.024C106.39 149.635 85.3863 142.832 64.5503 130.806C61.0496 128.77 57.7048 126.794 54.4799 124.877C20.7083 104.875 0.315807 92.8013 -49.5924 109.462L-49.7363 109.043C-26.1668 101.174 -8.12411 99.341 8.75572 103.09C24.4367 106.575 37.7919 114.481 54.6957 124.494C57.9326 126.41 61.2654 128.387 64.7661 130.411C106.031 154.234 147.858 157.229 185.706 139.071C209.072 127.86 228.23 110.36 241.141 88.4415C252.77 68.6904 264.687 53.0118 277.574 40.4952C296.228 22.3732 318.875 14.4081 343.056 17.4744C369.155 20.7682 388.18 35.1533 395.158 41.178C404.449 49.2149 412.493 56.9524 420.262 64.4384C448.495 91.6395 470.793 113.115 527.367 125.272L527.271 125.704C501.28 120.122 480.768 112.169 462.737 100.671C446.457 90.298 433.581 77.8892 419.95 64.7618C412.181 57.2758 404.149 49.5503 394.87 41.5133C371.744 21.5108 321.081 -1.1388 277.886 40.8067C265.022 53.2993 253.13 68.954 241.525 88.6571C228.577 110.648 209.348 128.207 185.91 139.454C169.546 147.311 152.414 151.264 134.887 151.264L134.875 151.288Z" fill="#00456C"/>
<path d="M132.369 159.696C131.818 159.696 131.266 159.696 130.727 159.696C109.124 159.384 87.3884 152.904 66.1208 140.448C61.3613 137.657 56.9376 134.962 52.6697 132.351C19.6533 112.253 -0.271637 100.107 -49.5564 116.361L-49.7123 115.894C-0.211693 99.5683 19.7852 111.75 52.9214 131.932C57.2013 134.531 61.6131 137.226 66.3725 140.017C107.781 164.271 151.671 165.469 189.95 143.394C212.968 130.123 231.466 110.264 243.455 85.9858C254.089 64.4381 265.502 47.6935 278.365 34.8056C293.819 19.3066 311.67 11.5452 331.343 11.7129C358.844 11.9524 383.661 27.6311 397.723 42.2317C405.719 50.5322 412.625 58.3895 419.302 65.9832C447.799 98.3945 468.383 121.823 530.136 131.788L530.064 132.267C501.556 127.668 479.869 119.786 461.778 107.474C445.234 96.2146 433.053 82.3446 418.943 66.2947C412.265 58.7009 405.36 50.8436 397.376 42.5551C383.385 28.0263 358.689 12.4195 331.343 12.18C331.139 12.18 330.923 12.18 330.719 12.18C311.406 12.18 293.915 19.9055 278.725 35.129C265.909 47.981 254.52 64.6897 243.91 86.1894C231.886 110.564 213.316 130.482 190.214 143.813C171.943 154.354 152.498 159.684 132.393 159.684L132.369 159.696Z" fill="#00456C"/>
<path d="M130.523 168.416C109.303 168.416 88.1916 162.259 67.6913 150.09C61.709 146.533 56.2902 143.143 51.0512 139.849C18.7542 119.595 -0.751171 107.366 -49.5205 123.26L-49.6883 122.745C-0.679237 106.767 18.91 119.044 51.3389 139.382C56.5779 142.664 61.9847 146.053 67.967 149.611C110.322 174.764 155.148 174.093 194.194 147.718C216.589 132.591 234.907 109.785 245.769 83.5185C255.431 60.1503 266.353 42.3516 279.157 29.0924C294.478 13.2341 312.245 5.60441 331.942 6.40691C361.122 7.60467 387.005 27.0083 400.301 43.2619C407.47 52.0175 413.644 60.2341 419.614 68.1752C446.924 104.515 466.669 130.77 532.906 138.28L532.846 138.819C466.369 131.285 446.576 104.946 419.171 68.4986C413.2 60.5575 407.026 52.3529 399.869 43.5973C386.646 27.4395 360.906 8.13168 331.906 6.9459C312.353 6.1434 294.742 13.7132 279.54 29.4637C266.785 42.663 255.899 60.4138 246.26 83.7221C235.351 110.097 216.96 132.974 194.482 148.161C175.792 160.786 155.591 167.565 134.431 168.332C133.125 168.38 131.806 168.404 130.499 168.404L130.523 168.416Z" fill="#00456C"/>
<path d="M129.408 177.399C109.148 177.399 88.815 171.47 69.2858 159.732C62.1046 155.42 55.7747 151.323 49.6486 147.371C17.9989 126.925 -1.09883 114.588 -49.4485 130.171L-49.6284 129.596C-1.00293 113.93 18.1907 126.326 49.9842 146.868C56.0984 150.82 62.4283 154.905 69.5975 159.217C100.78 177.962 134 181.806 165.673 170.32C202.598 156.929 233.421 123.559 248.118 81.063C256.954 55.5149 268.031 35.7399 281.051 22.2771C292.488 10.4433 305.46 3.43641 319.582 1.43615C334.987 -0.743764 351.759 3.13698 368.088 12.6711C381.599 20.5524 394.294 32.0868 402.926 44.3159C409.556 53.7063 415.226 62.4619 420.717 70.9181C447.655 112.444 465.446 139.885 535.735 144.796L535.687 145.395C465.099 140.46 447.248 112.923 420.214 71.2414C414.735 62.7853 409.064 54.0416 402.435 44.6512C385.651 20.8638 352.586 -2.62424 319.666 2.02306C289.695 6.26312 265.154 33.6558 248.694 81.2427C233.936 123.907 202.982 157.42 165.889 170.871C153.889 175.219 141.672 177.387 129.432 177.387L129.408 177.399Z" fill="#00456C"/>
</svg>
