<svg width="15" height="14" viewBox="0 0 15 14" fill="none" xmlns="http://www.w3.org/2000/svg">
<path d="M14.9773 2.59783C14.5903 3.1141 14.1225 3.56444 13.5919 3.93147C13.5919 4.06633 13.5919 4.20118 13.5919 4.34354C13.5962 6.79258 12.6179 9.14092 10.8765 10.8621C9.13501 12.5833 6.77601 13.5333 4.32839 13.4991C2.91334 13.5038 1.5164 13.1808 0.247029 12.5551C0.178579 12.5252 0.134437 12.4575 0.134695 12.3828V12.3003C0.134695 12.1928 0.22187 12.1056 0.329404 12.1056C1.72036 12.0597 3.06169 11.5774 4.16363 10.727C2.90462 10.7016 1.77184 9.95575 1.25051 8.80892C1.22419 8.74633 1.23238 8.67442 1.27215 8.61933C1.31192 8.56425 1.37751 8.53392 1.44522 8.53925C1.82786 8.57767 2.21433 8.54208 2.58351 8.43433C1.19367 8.14583 0.149354 6.992 -0.000104771 5.57975C-0.0054131 5.512 0.0249452 5.44642 0.0800118 5.40658C0.13507 5.36683 0.206879 5.35859 0.269495 5.385C0.642462 5.54959 1.04509 5.63625 1.45271 5.63967C0.234878 4.84039 -0.291147 3.32004 0.172137 1.93852C0.219962 1.80428 0.334853 1.7051 0.474595 1.67745C0.614328 1.64979 0.758312 1.69773 0.853612 1.80366C2.497 3.55271 4.75504 4.59497 7.15159 4.71066C7.09026 4.46571 7.0601 4.21397 7.06176 3.96143C7.08418 2.63727 7.90351 1.45768 9.13618 0.974893C10.3688 0.492118 11.7708 0.801694 12.6858 1.7587C13.3095 1.63988 13.9125 1.43038 14.4756 1.13684C14.5168 1.11109 14.5692 1.11109 14.6104 1.13684C14.6362 1.17811 14.6362 1.23043 14.6104 1.2717C14.3377 1.89627 13.8769 2.4201 13.2924 2.77016C13.8043 2.7108 14.3071 2.59006 14.7902 2.41053C14.8308 2.38285 14.8843 2.38285 14.9249 2.41053C14.959 2.42612 14.9845 2.45593 14.9946 2.49202C15.0047 2.52811 14.9983 2.56682 14.9773 2.59783Z" fill="black"/>
</svg>
